<?xml version="1.0" encoding="UTF-8"?>
<svg id="Layer_1" data-name="Layer 1" xmlns="http://www.w3.org/2000/svg" viewBox="0 0 403 414">
  <defs>
    <style>
      .cls-1 {
        fill: #fdfefe;
      }

      .cls-1, .cls-2, .cls-3, .cls-4, .cls-5, .cls-6, .cls-7, .cls-8, .cls-9, .cls-10, .cls-11, .cls-12, .cls-13 {
        stroke-width: 0px;
      }

      .cls-2 {
        fill: #dfb6a2;
      }

      .cls-3 {
        fill: #e06c1e;
      }

      .cls-4 {
        fill: #dc5f00;
      }

      .cls-5 {
        fill: #c10017;
      }

      .cls-6 {
        fill: #c9a495;
      }

      .cls-8 {
        fill: #04050c;
      }

      .cls-9 {
        fill: #edf6fd;
      }

      .cls-10 {
        fill: #6d0113;
      }

      .cls-11 {
        fill: #776050;
      }

      .cls-12 {
        fill: #cae2f9;
      }

      .cls-13 {
        fill: #fdfdfd;
      }
    </style>
  </defs>
  <path class="cls-8" d="m12,225.19c2.44-7.38,7.69-12.92,12.47-18.7,5.7-6.88,7.45-14.3,4.75-22.91-2.22-7.08-4.32-14.22-5.99-21.44-2.35-10.12,4.65-19.34,11.2-22.32,2.82-1.28,5.69-2.47,8.55-3.67,9.51-3.98,13.9-10.54,14.05-20.72.13-9.09.14-18.2.67-27.27.97-16.67,7.29-31.37,17.76-44.2,14.2-17.39,32.77-26.99,54.96-29.75,1.11-.14,2.24-.1,3.36-.11,15.84,0,31.68-.02,47.52.02,1.47,0,2.93.31,4.4.48.56.81,1.14,1.6,1.68,2.42,1.79,2.72,2.82,5.45,1.12,8.72-1.76,3.39-4.51,4.81-8.16,4.82-9.23.02-18.55-.83-27.66.22-19.4,2.23-35.84,10.79-49.17,25.32-14.74,16.07-21.67,35.01-21.89,56.61-.07,6.98.16,13.97-.07,20.94-.16,4.68-1.84,8.85-5.03,12.51-4.06,4.65-9.48,6.72-14.99,8.69-9.38,3.35-16.46,14.3-13.65,24.38,1.79,6.45,3.61,12.9,5.49,19.33,2.18,7.48,2.38,14.78-2.28,21.44-2.7,3.86-5.53,7.69-8.79,11.06-7.33,7.59-8.1,22.14.87,30.24,8.27,7.47,8.36,21.38,1.69,29.52-6.44,7.85-6.19,18.54.12,26.46-1.45,1.5-2.9,3-4.36,4.5-5.6-5.67-11.18-11.35-16.8-17-10.14-10.19-10.98-19.92-2.7-31.57,5.92-8.33,5.48-18.12-.74-26.22-3.1-4.04-5.61-8.54-8.38-12.84,0-2.99,0-5.99,0-8.98Z"/>
  <path class="cls-4" d="m206.62,397.35c-2.49-1.56-4.91-3.16-4.61-6.66.7-4.48,2.46-6.09,6.85-6.18,4.11-.08,8.22-.1,12.33-.14,8.1.07,16.2.14,24.3.2,43.46,0,86.93,0,130.39-.01,3.96,0,7.93.16,11.88-.01,3.58-.16,5.97,1.14,7.1,4.59,1.08,3.29-.58,5.44-2.98,7.29-.38.3-.75.62-1.12.93h-184.14Z"/>
  <path class="cls-7" d="m44.98,317.3c-6.31-7.92-6.56-18.61-.12-26.46,6.67-8.14,6.58-22.04-1.69-29.52-8.97-8.1-8.19-22.65-.87-30.24,3.26-3.38,6.09-7.21,8.79-11.06,4.66-6.66,4.46-13.96,2.28-21.44-1.88-6.43-3.69-12.88-5.49-19.33-2.8-10.08,4.28-21.03,13.65-24.38,5.5-1.97,10.93-4.04,14.99-8.69,3.19-3.66,4.87-7.84,5.03-12.51.24-6.97,0-13.96.07-20.94.22-21.6,7.15-40.54,21.89-56.61,13.33-14.53,29.77-23.09,49.17-25.32,9.11-1.05,18.43-.2,27.66-.22,3.65,0,6.4-1.42,8.16-4.82,1.7-3.27.67-6-1.12-8.72-.54-.82-1.12-1.61-1.68-2.42,35.78,3.05,66.51,31.39,71.67,66.99,1.56,10.77,1.21,21.84,1.44,32.79.23,11.36,4.41,17.85,14.85,22.17,1.95.81,3.92,1.59,5.86,2.43,10.85,4.7,15.79,14.91,12.63,26.24-1.83,6.58-3.75,13.15-5.72,19.69-2.21,7.37-.8,14.02,3.85,20.03,3.12,4.04,6.45,7.93,9.48,12.03,6.1,8.25,5.54,19.21-1.22,26.84-9.54,10.77-10.31,17.12-3.67,29.99-19.88.01-39.77.01-59.65.04-8.4.01-13.62,5.15-13.93,13.6-.09,2.47-.24,4.94-.37,7.4-2.79-1.05-5.59-2.1-8.38-3.15-11.39-6.67-19.25-16.07-22.5-29.05-.3-3.28-.6-6.56-.9-9.84,1.31-.7,2.63-1.39,3.94-2.1,27.94-15.1,43.3-38.24,44.31-70.22.43-13.58,0-27.18.14-40.77.04-4.12-1.72-6.42-5.45-7.86-13.23-5.09-23.53-13.77-31.18-25.69-3.6-5.61-7.84-5.53-12.39-.76-6.94,7.29-13.97,14.58-21.62,21.08-10.34,8.78-22.64,14.38-35.23,19.24-.47.07-.94.13-1.4.2-5.34-1.02-9.78,1.22-14.11,3.88-.3.17-.59.33-.89.5v-.02c-5.98.6-11.98,1.21-17.98,1.81-.48,0-.96,0-1.44.01-.25-.02-.51-.04-.76-.06-2.99-.07-5.98-.18-8.97-.19-5.27-.02-7.63,2.16-7.66,7.37-.05,8.11-.11,16.22.16,24.32.51,14.95,5.45,28.5,13.79,40.82,8.76,12.94,20.59,22.21,34.74,28.63-.4,3.24-.79,6.48-1.19,9.72-3.17,12.7-10.72,22.05-21.92,28.6-12.12,4.36-24.17,8.93-36.39,13-8.49,2.83-16.27,6.64-22.67,12.98Z"/>
  <path class="cls-3" d="m375.88,384.56c-43.46,0-86.93,0-130.39.02.02-26.53.04-53.06.06-79.59,0-9.19,5.42-14.67,14.48-14.67,33.13,0,66.27,0,99.4,0,9.59,0,12.77-4.14,10.37-13.49,5.03,2.2,5.92,6.69,5.93,11.39.07,30.25.04,60.5.04,90.75,0,1.87.06,3.73.1,5.6Zm-108.03-52.23c3.08-3.39,6.05-6.26,8.54-9.49,2.75-3.57,2.26-7.05-.8-9.5-2.68-2.14-6.05-1.77-8.98,1.23-4.25,4.37-8.43,8.81-12.55,13.3-2.45,2.68-2.64,5.72-.23,8.44,4.2,4.75,8.62,9.31,13.04,13.87,2.96,3.06,6.48,3.23,9.15.63,3.04-2.97,3.02-6.2,0-9.47-2.69-2.91-5.32-5.87-8.17-9.01Zm56.25,21.08c2.32-1.32,4.27-1.96,5.57-3.26,4.23-4.19,8.29-8.56,12.28-12.98,2.55-2.82,2.47-6.49-.16-9.38-4.1-4.49-8.27-8.93-12.53-13.27-3.31-3.37-6.2-3.34-9.33-.2-2.7,2.71-2.55,6,.38,9.22,2.17,2.38,4.48,4.67,6.38,7.25.59.8.55,2.85-.08,3.63-2.03,2.5-4.51,4.62-6.72,6.99-2.08,2.23-2.61,5.07-1.05,7.55,1.1,1.76,3.29,2.84,5.25,4.44Zm-35.1-9.24c-.17,5.13,1.63,7.69,4.98,8.24,3.92.65,6.74-1.2,7.7-5.19,2.17-9.02,4.47-18.01,6.26-27.1.38-1.92-.63-4.88-2.06-6.16-1.41-1.24-4.3-1.57-6.33-1.18-3.65.7-4.02,4.12-4.72,7.21-1.92,8.44-4.04,16.83-5.83,24.18Z"/>
  <path class="cls-4" d="m369.81,276.82c2.4,9.35-.78,13.49-10.37,13.49-33.13,0-66.27,0-99.4,0-9.06,0-14.47,5.48-14.48,14.67-.02,26.53-.04,53.06-.06,79.59-8.1-.07-16.2-.14-24.3-.2-.09-29.83-.17-59.67-.26-89.51.12-2.47.28-4.93.37-7.4.3-8.45,5.53-13.59,13.93-13.6,19.88-.03,39.77-.03,59.65-.04,22.46,0,44.91-.05,67.37.12,2.27.02,4.54,1.34,6.8,2.06.26.28.52.56.77.84v-.02Z"/>
  <path class="cls-12" d="m369.82,276.84c-.26-.28-.52-.56-.77-.84.26.28.52.56.77.84Z"/>
  <path class="cls-10" d="m44.98,317.3c6.41-6.34,14.18-10.15,22.67-12.98,12.22-4.07,24.27-8.64,36.39-13,3,4.9,6,9.81,9,14.71-.57,7.02-5.43,9.57-11.36,11.36-5.7,1.72-11.3,3.81-16.87,5.92-15.74,5.97-27.65,21.72-27.18,39.08.14,5.35-.24,10.73.09,16.07.32,5.14-1.07,9.26-5.28,12.32-4.56.1-9.16.58-13.68.18-3.98-.35-5.78-2.93-5.79-6.93-.03-13.44-.18-26.89.06-40.33.14-8.02,3.61-15.1,7.6-21.9,1.45-1.5,2.9-3,4.36-4.5Z"/>
  <path class="cls-5" d="m52.44,390.78c4.21-3.06,5.6-7.18,5.28-12.32-.33-5.34.05-10.71-.09-16.07-.47-17.36,11.45-33.11,27.18-39.08,5.57-2.11,11.17-4.2,16.87-5.92,5.94-1.79,10.8-4.34,11.36-11.36,13.13,14.39,29.18,21.58,48.9,20.34,15.8-1,29.05-7.31,39.59-18.86,4.29-4.7,7.38-10.5,11.02-15.8,2.79,1.05,5.59,2.1,8.38,3.15.09,29.84.17,59.67.26,89.51-4.11.04-8.22.06-12.33.14-4.39.09-6.15,1.71-6.85,6.18-.5.04-.99.12-1.49.12-49.36,0-98.72-.02-148.08-.04Z"/>
  <path class="cls-6" d="m97.28,152.1c6-.6,11.99-1.21,17.99-1.81-.84,1.2-1.7,2.4-2.52,3.61-6.04,8.85-4.32,19.99,4.06,26.38,4.79,3.96,10.16,5.19,16.27,3.82,7.21-1.62,11.46-6.42,14.44-12.73,6.71,0,13.42.02,20.13.03,2.27,2.96,4.53,5.92,6.8,8.88,5.8,4.79,12.23,5.52,19.16,2.96,8.27-3.05,13.6-12.37,12.16-21.25-1.43-8.85-9.06-15.71-17.88-16.08-4.23-.54-8.53-.15-11.69,2.66-3.25,2.88-5.7,6.66-8.51,10.05-6.74,0-13.49.02-20.23.03-3.2-6.83-8.19-11.48-15.81-12.91,12.59-4.87,24.89-10.47,35.23-19.24,7.66-6.5,14.69-13.79,21.62-21.08,4.54-4.77,8.78-4.85,12.39.76,7.65,11.92,17.95,20.6,31.18,25.69,3.73,1.44,5.49,3.74,5.45,7.86-.15,13.59.29,27.19-.14,40.77-1.01,31.98-16.37,55.12-44.31,70.22-1.31.71-2.63,1.4-3.94,2.1-8.68,1.97-17.35,3.93-26.03,5.9.65-.71,1.28-1.44,1.95-2.12,4.04-4.09,4.44-10.92.34-14.28-2.11-1.74-5-2.67-7.67-3.57-17.3-5.86-31.07-16.25-41.35-31.39-9.22-13.58-13.13-28.74-13.76-44.89-.15-3.74-1.06-6.81-4.43-8.84-.45-.27-.62-1.01-.92-1.54Z"/>
  <path class="cls-6" d="m212.55,291.71c-3.64,5.3-6.73,11.1-11.02,15.8-10.54,11.55-23.79,17.86-39.59,18.86-19.72,1.25-35.76-5.95-48.9-20.34-3-4.9-6-9.81-9-14.71,11.2-6.55,18.74-15.9,21.92-28.6,1.83,1.54,3.43,3.71,5.54,4.53,13.01,5.08,26.59,5.61,40.17,3.42,6.61-1.07,13.95-1.47,18.38-8,3.25,12.97,11.11,22.38,22.5,29.05Z"/>
  <path class="cls-6" d="m97.28,152.1c.3.52.47,1.26.92,1.54,3.37,2.03,4.28,5.09,4.43,8.84.63,16.16,4.54,31.31,13.76,44.89,10.28,15.14,24.05,25.53,41.35,31.39,2.67.9,5.56,1.83,7.67,3.57,4.1,3.37,3.7,10.19-.34,14.28-.68.68-1.3,1.41-1.95,2.12-4.57-.11-9.24.33-13.7-.47-7.5-1.34-14.86-3.46-22.27-5.26-14.16-6.42-25.98-15.69-34.74-28.63-8.35-12.33-13.28-25.87-13.79-40.82-.28-8.1-.21-16.21-.16-24.32.03-5.21,2.39-7.4,7.66-7.37,2.99.01,5.98.13,8.97.19.25.02.51.04.76.06.48,0,.96,0,1.44-.01Z"/>
  <path class="cls-9" d="m147.52,171.37c-2.99,6.31-7.24,11.11-14.44,12.73-6.1,1.37-11.47.13-16.27-3.82,3.38.39,4.13-1.46,3.63-4.31-.19-1.09-.52-2.16-.78-3.24-2.03-8.16.84-14.73,7.13-19.7,2.55-2.01,3.94-3.92,3.48-7.09.47-.07.94-.13,1.4-.2,7.62,1.43,12.6,6.08,15.81,12.91.02,4.24.03,8.49.05,12.73Z"/>
  <path class="cls-6" d="m127.15,253c7.42,1.79,14.77,3.92,22.27,5.26,4.45.8,9.12.35,13.7.47,8.68-1.97,17.35-3.94,26.03-5.9.3,3.28.6,6.56.9,9.84-4.42,6.53-11.77,6.93-18.38,8-13.58,2.19-27.16,1.66-40.17-3.42-2.11-.83-3.71-2.99-5.54-4.53.4-3.24.79-6.48,1.19-9.72Z"/>
  <path class="cls-13" d="m130.26,145.93c.46,3.17-.94,5.08-3.48,7.09-6.29,4.97-9.16,11.54-7.13,19.7.27,1.08.59,2.15.78,3.24.51,2.85-.24,4.7-3.63,4.31-8.39-6.4-10.1-17.54-4.06-26.38.83-1.21,1.68-2.41,2.52-3.61,0,0-.01.02-.01.02.3-.17.59-.33.89-.5,4.33-2.65,8.78-4.89,14.11-3.88Z"/>
  <path class="cls-2" d="m116.15,149.81c-.3.17-.59.33-.89.5.3-.17.59-.33.89-.5Z"/>
  <path class="cls-2" d="m95.84,152.11c-.25-.02-.51-.04-.76-.06.25.02.51.04.76.06Z"/>
  <path class="cls-1" d="m267.85,332.33c2.85,3.14,5.48,6.1,8.17,9.01,3.01,3.26,3.03,6.5,0,9.47-2.66,2.6-6.18,2.43-9.15-.63-4.41-4.56-8.83-9.12-13.04-13.87-2.41-2.72-2.22-5.76.23-8.44,4.11-4.5,8.29-8.94,12.55-13.3,2.93-3.01,6.3-3.38,8.98-1.23,3.06,2.45,3.55,5.93.8,9.5-2.49,3.23-5.46,6.1-8.54,9.49Z"/>
  <path class="cls-1" d="m324.09,353.41c-1.96-1.6-4.15-2.68-5.25-4.44-1.55-2.48-1.03-5.32,1.05-7.55,2.2-2.36,4.69-4.49,6.72-6.99.63-.77.67-2.82.08-3.63-1.9-2.58-4.21-4.87-6.38-7.25-2.93-3.22-3.08-6.52-.38-9.22,3.13-3.14,6.03-3.17,9.33.2,4.26,4.34,8.43,8.77,12.53,13.27,2.63,2.88,2.71,6.56.16,9.38-3.99,4.42-8.05,8.79-12.28,12.98-1.31,1.29-3.26,1.94-5.57,3.26Z"/>
  <path class="cls-1" d="m288.99,344.17c1.79-7.36,3.91-15.75,5.83-24.18.7-3.09,1.07-6.51,4.72-7.21,2.03-.39,4.92-.06,6.33,1.18,1.44,1.27,2.44,4.24,2.06,6.16-1.79,9.09-4.09,18.09-6.26,27.1-.96,3.99-3.78,5.84-7.7,5.19-3.35-.55-5.15-3.12-4.98-8.24Z"/>
  <path class="cls-9" d="m187.89,145.91c8.82.37,16.45,7.24,17.88,16.08,1.43,8.88-3.89,18.2-12.16,21.25-6.93,2.56-13.36,1.82-19.16-2.96,3.38.39,4.13-1.46,3.63-4.31-.19-1.09-.52-2.16-.78-3.24-2-8.16.91-14.73,7.15-19.71,2.54-2.03,3.92-3.94,3.46-7.11Z"/>
  <path class="cls-13" d="m187.89,145.91c.46,3.16-.91,5.08-3.46,7.11-6.24,4.99-9.14,11.56-7.15,19.71.26,1.08.59,2.15.78,3.24.51,2.85-.24,4.7-3.63,4.31-2.27-2.96-4.53-5.92-6.8-8.88.02-4.26.03-8.52.05-12.79,2.8-3.39,5.26-7.16,8.51-10.05,3.16-2.81,7.46-3.2,11.69-2.66Z"/>
  <path class="cls-11" d="m167.7,158.61c-.02,4.26-.03,8.52-.05,12.79-6.71,0-13.42-.02-20.13-.03-.02-4.24-.03-8.49-.05-12.73,6.74,0,13.49-.02,20.23-.03Z"/>
</svg>